# xmcd
#
# Track frame offsets: 
#        150
#        15660
#        31385
#        44892
#        64485
#        92430
#        116482
#        132437
#        158260
#        175135
#        189547
#        210137
#        224905
#        243605
#        258157
#
# Disc length: 3664 seconds
#
# Revision: 4
# Processed by: cddbd v1.5.1PL0 Copyright (c) Steve Scherf et al.
# Submitted via: ExactAudioCopy v0.90b4
#
DISCID=d40e4e0f
DTITLE=Jools Holland And The Rhythm and Blues Orchestra - Live Performan
DTITLE=ce
DYEAR=1994
DGENRE=Boogie Woogie
TTITLE0=Bumble Boogie
TTITLE1=Bad Luck Blues
TTITLE2=Skin The Cat
TTITLE3=Mean Old Man's World
TTITLE4=Dr Jazz
TTITLE5=High Street
TTITLE6=I Saw The Light
TTITLE7=Should've Known Better
TTITLE8=Able Mabel
TTITLE9=Maiden's Lament
TTITLE10=Biggie Wiggie
TTITLE11=May Be I Need Her
TTITLE12=I Gotta Woman
TTITLE13=Smoking Shuffle
TTITLE14=Hop Skip And Jump
EXTD=
EXTT0=
EXTT1=
EXTT2=
EXTT3=
EXTT4=
EXTT5=
EXTT6=
EXTT7=
EXTT8=
EXTT9=
EXTT10=
EXTT11=
EXTT12=
EXTT13=
EXTT14=
PLAYORDER=
